<mxfile host="app.diagrams.net" modified="2023-02-22T00:18:36.493Z" agent="5.0 (Macintosh; Intel Mac OS X 10_15_7) AppleWebKit/537.36 (KHTML, like Gecko) Chrome/109.0.0.0 Safari/537.36" etag="-Z_LSXC8RR8Wb3JxJNyZ" version="20.8.22" type="github">
  <diagram name="Page-1" id="wcaCd7EeFezKXFBg0lFr">
    <mxGraphModel dx="799" dy="1395" grid="1" gridSize="10" guides="1" tooltips="1" connect="1" arrows="1" fold="1" page="1" pageScale="1" pageWidth="1100" pageHeight="850" math="0" shadow="0">
      <root>
        <mxCell id="0" />
        <mxCell id="1" parent="0" />
        <mxCell id="QAXlqffc3XCzaR2EPbh7-1" value="Search" style="rounded=0;whiteSpace=wrap;html=1;" parent="1" vertex="1">
          <mxGeometry x="630" y="-500" width="120" height="20" as="geometry" />
        </mxCell>
        <mxCell id="QAXlqffc3XCzaR2EPbh7-2" value="Home" style="rounded=0;whiteSpace=wrap;html=1;strokeColor=none;fillColor=#ffff88;" parent="1" vertex="1">
          <mxGeometry x="90" y="-460" width="100" height="30" as="geometry" />
        </mxCell>
        <mxCell id="QAXlqffc3XCzaR2EPbh7-3" value="About Us" style="rounded=0;whiteSpace=wrap;html=1;strokeColor=none;fillColor=#ffff88;" parent="1" vertex="1">
          <mxGeometry x="196" y="-460" width="100" height="30" as="geometry" />
        </mxCell>
        <mxCell id="QAXlqffc3XCzaR2EPbh7-4" value="Contact Us" style="rounded=0;whiteSpace=wrap;html=1;strokeColor=none;fillColor=#ffff88;" parent="1" vertex="1">
          <mxGeometry x="307" y="-460" width="100" height="30" as="geometry" />
        </mxCell>
        <mxCell id="QAXlqffc3XCzaR2EPbh7-5" value="Deals" style="rounded=0;whiteSpace=wrap;html=1;strokeColor=none;fillColor=#ffff88;" parent="1" vertex="1">
          <mxGeometry x="420" y="-460" width="89" height="30" as="geometry" />
        </mxCell>
        <mxCell id="QAXlqffc3XCzaR2EPbh7-6" value="Login" style="rounded=0;whiteSpace=wrap;html=1;strokeColor=none;fillColor=#ffff88;" parent="1" vertex="1">
          <mxGeometry x="520" y="-460" width="85" height="30" as="geometry" />
        </mxCell>
        <mxCell id="QAXlqffc3XCzaR2EPbh7-7" value="Create an account" style="rounded=0;whiteSpace=wrap;html=1;strokeColor=none;fillColor=#ffff88;" parent="1" vertex="1">
          <mxGeometry x="610" y="-460" width="130" height="30" as="geometry" />
        </mxCell>
        <mxCell id="QAXlqffc3XCzaR2EPbh7-9" value="Site Name&lt;br&gt;Tag Line" style="rounded=0;whiteSpace=wrap;html=1;" parent="1" vertex="1">
          <mxGeometry x="230" y="-430" width="520" height="50" as="geometry" />
        </mxCell>
        <mxCell id="QAXlqffc3XCzaR2EPbh7-10" value="Logo" style="rounded=0;whiteSpace=wrap;html=1;" parent="1" vertex="1">
          <mxGeometry x="110" y="-430" width="120" height="50" as="geometry" />
        </mxCell>
        <mxCell id="QAXlqffc3XCzaR2EPbh7-27" value="Return to top" style="rounded=0;whiteSpace=wrap;html=1;strokeColor=none;fillColor=#cce5ff;" parent="1" vertex="1">
          <mxGeometry x="110" y="-110" width="650" height="30" as="geometry" />
        </mxCell>
        <mxCell id="QAXlqffc3XCzaR2EPbh7-29" value="Copyright" style="rounded=0;whiteSpace=wrap;html=1;strokeColor=none;" parent="1" vertex="1">
          <mxGeometry x="110" y="-60" width="100" height="30" as="geometry" />
        </mxCell>
        <mxCell id="QAXlqffc3XCzaR2EPbh7-30" value="About" style="rounded=0;whiteSpace=wrap;html=1;strokeColor=none;" parent="1" vertex="1">
          <mxGeometry x="296" y="-60" width="100" height="30" as="geometry" />
        </mxCell>
        <mxCell id="QAXlqffc3XCzaR2EPbh7-31" value="Help" style="rounded=0;whiteSpace=wrap;html=1;strokeColor=none;" parent="1" vertex="1">
          <mxGeometry x="477" y="-60" width="100" height="30" as="geometry" />
        </mxCell>
        <mxCell id="QAXlqffc3XCzaR2EPbh7-32" value="Disclaimer" style="rounded=0;whiteSpace=wrap;html=1;strokeColor=none;" parent="1" vertex="1">
          <mxGeometry x="660" y="-60" width="100" height="30" as="geometry" />
        </mxCell>
        <mxCell id="QAXlqffc3XCzaR2EPbh7-33" value="Tip Top Shoe Company" style="rounded=0;whiteSpace=wrap;html=1;strokeColor=none;fontColor=#0000CC;fontSize=17;" parent="1" vertex="1">
          <mxGeometry x="338.5" y="-500" width="207.5" height="20" as="geometry" />
        </mxCell>
        <mxCell id="uIyrIMlD8DhGRG01jT4R-2" value="&lt;div style=&quot;text-align: left; font-size: 14px;&quot;&gt;&lt;font style=&quot;font-size: 14px;&quot; color=&quot;#000000&quot;&gt;&lt;strong style=&quot;margin: 0px; padding: 0px; font-family: &amp;quot;Open Sans&amp;quot;, Arial, sans-serif; text-align: justify; background-color: rgb(255, 255, 255);&quot;&gt;Lorem Ipsum&lt;/strong&gt;&lt;span style=&quot;background-color: initial;&quot;&gt;&amp;nbsp;&lt;/span&gt;&lt;span style=&quot;background-color: initial;&quot;&gt;is simply dummy text of the printing and typesetting industry. Lorem Ipsum has been the industry&#39;s standard dummy text ever since the 1500s, when an unknown printer took a galley of type and scrambled it to make a type specimen book. It has survived not only five centuries, but also the leap into electronic typesetting, remaining essentially unchanged. It was popularised in the 1960s with the release of Letraset sheets containing Lorem Ipsum passages, and more recently with desktop publishing software like Aldus PageMaker including versions of Lorem Ipsum.&lt;/span&gt;&lt;/font&gt;&lt;/div&gt;" style="rounded=0;whiteSpace=wrap;html=1;fontSize=17;fontColor=#0000CC;" parent="1" vertex="1">
          <mxGeometry x="110" y="-290" width="640" height="170" as="geometry" />
        </mxCell>
        <mxCell id="uIyrIMlD8DhGRG01jT4R-3" value="About Us" style="rounded=0;whiteSpace=wrap;html=1;strokeColor=none;fillColor=#ffff88;" parent="1" vertex="1">
          <mxGeometry x="420" y="-330" width="89" height="30" as="geometry" />
        </mxCell>
      </root>
    </mxGraphModel>
  </diagram>
</mxfile>
